<?xml version="1.0" encoding="utf-8"?>
<!-- Generator: Adobe Illustrator 19.2.1, SVG Export Plug-In . SVG Version: 6.00 Build 0)  -->
<svg version="1.1" id="Layer_1" xmlns="http://www.w3.org/2000/svg" xmlns:xlink="http://www.w3.org/1999/xlink" x="0px" y="0px"
	 viewBox="0 0 113.1 113.2" style="enable-background:new 0 0 113.1 113.2;" xml:space="preserve">
<style type="text/css">
	.st0{clip-path:url(#SVGID_2_);fill:none;stroke:#474431;stroke-width:5;stroke-miterlimit:10;}
</style>
<g>
	<defs>
		<rect id="SVGID_1_" x="6.8" y="6.9" width="99.5" height="99.5"/>
	</defs>
	<clipPath id="SVGID_2_">
		<use xlink:href="#SVGID_1_"  style="overflow:visible;"/>
	</clipPath>
	<path class="st0" d="M74.6,69.1c0.7-4.6-0.8-9.5-4.4-13.1c-6-6-15.8-6-21.8,0c-6,6-6,15.8,0,21.8c3.5,3.5,8.4,5,13.1,4.4
		 M85.5,40.8c4.6,0.6,9.5-0.8,13.1-4.4c6-6,6-15.8,0-21.8c-6-6-15.8-6-21.8,0c-3.5,3.5-5,8.4-4.4,13.1 M65.9,34.2L50.6,19L11.4,58.2
		L55,101.7l13.1-13.1 M81.1,75.6l13.1-13.1L78.9,47.3"/>
</g>
</svg>
