<?xml version="1.0" encoding="utf-8"?>
<!-- Generator: Adobe Illustrator 19.2.1, SVG Export Plug-In . SVG Version: 6.00 Build 0)  -->
<svg version="1.1" id="Layer_1" xmlns="http://www.w3.org/2000/svg" xmlns:xlink="http://www.w3.org/1999/xlink" x="0px" y="0px"
	 viewBox="0 0 200 200" style="enable-background:new 0 0 200 200;" xml:space="preserve">
<style type="text/css">
	.st0{clip-path:url(#SVGID_2_);fill:none;stroke:#50535C;stroke-width:2.126;stroke-miterlimit:10;}
</style>
<g>
	<defs>
		<rect id="SVGID_1_" x="27.3" y="26.3" width="145.3" height="147.5"/>
	</defs>
	<clipPath id="SVGID_2_">
		<use xlink:href="#SVGID_1_"  style="overflow:visible;"/>
	</clipPath>
	<path class="st0" d="M85.4,44.7l-0.9,6.7c-7,2-13.5,5.5-18.9,10.1l-21.4-5.9L33.1,74.8l15.6,15.6c-0.6,3-0.9,6.2-0.9,9.4
		c0,3.9,0.5,7.6,1.3,11.3l-13.9,13.6l11.1,19.3l19.7-5.2c5.3,4.4,11.5,7.8,18.4,9.8l5.4,20.5l22.3,0.1l6-22.2
		c5.1-2.1,9.7-4.9,13.8-8.4l21.4,5.9l11.2-19.2l-15.6-15.6c0.6-3.1,0.9-6.2,0.9-9.4c0-2.5-0.2-5-0.6-7.4l17.8-17.4l-11.1-19.3
		l-23.2,6.1c-4.2-3.7-9-6.8-14.3-9l-5.9-22.3l-27-0.1 M118.4,100.1c0,10.2-8.4,18.4-18.6,18.4c-10.2,0-18.5-8.3-18.5-18.5
		c0-10.2,8.4-18.4,18.6-18.4C110.2,81.6,118.5,89.9,118.4,100.1z"/>
</g>
</svg>
