<?xml version="1.0" encoding="utf-8"?>
<!-- Generator: Adobe Illustrator 19.2.1, SVG Export Plug-In . SVG Version: 6.00 Build 0)  -->
<svg version="1.1" id="Layer_1" xmlns="http://www.w3.org/2000/svg" xmlns:xlink="http://www.w3.org/1999/xlink" x="0px" y="0px"
	 viewBox="0 0 200 200" style="enable-background:new 0 0 200 200;" xml:space="preserve">
<style type="text/css">
	.st0{clip-path:url(#SVGID_2_);fill:none;stroke:#474432;stroke-width:2.835;stroke-miterlimit:10;}
</style>
<g>
	<defs>
		<rect id="SVGID_1_" x="22.8" y="22.7" width="154.4" height="159.5"/>
	</defs>
	<clipPath id="SVGID_2_">
		<use xlink:href="#SVGID_1_"  style="overflow:visible;"/>
	</clipPath>
	<path class="st0" d="M109,127.7l19.9,6.7l5,43.8H27.2l5-43.8l19.9-6.7 M148.4,127.6l19.4,5.2l4.8,35.4h-24.2 M133.9,46.9
		c16.1,0,29.1,13.6,29.1,30.3c0,16.7-13,30.3-29.1,30.3 M119.3,67.1c0,22.3-17.4,40.4-38.8,40.4c-21.4,0-38.8-18.1-38.8-40.4
		c0-22.3,17.4-40.4,38.8-40.4C102,26.6,119.3,44.7,119.3,67.1z"/>
</g>
</svg>
