<?xml version="1.0" encoding="utf-8"?>
<!-- Generator: Adobe Illustrator 19.2.1, SVG Export Plug-In . SVG Version: 6.00 Build 0)  -->
<svg version="1.1" id="Layer_1" xmlns="http://www.w3.org/2000/svg" xmlns:xlink="http://www.w3.org/1999/xlink" x="0px" y="0px"
	 viewBox="0 0 200 200" style="enable-background:new 0 0 200 200;" xml:space="preserve">
<style type="text/css">
	.st0{clip-path:url(#SVGID_2_);fill:none;stroke:#474432;stroke-width:2.835;stroke-miterlimit:10;}
</style>
<g>
	<defs>
		<rect id="SVGID_1_" x="38.4" y="33.4" width="123.1" height="133.2"/>
	</defs>
	<clipPath id="SVGID_2_">
		<use xlink:href="#SVGID_1_"  style="overflow:visible;"/>
	</clipPath>
	<path class="st0" d="M121,116.1c0.8-6.1-1-12.5-5.3-17.2c-7.3-7.9-19.1-7.9-26.4,0c-7.3,7.9-7.3,20.8,0,28.7
		c4.3,4.7,10.2,6.6,15.8,5.7 M135.2,78.8c5.6,0.9,11.5-1.1,15.8-5.7c7.3-7.9,7.3-20.8,0-28.7c-7.3-7.9-19.1-7.9-26.4,0
		c-4.3,4.7-6.1,11.1-5.3,17.2 M111.4,70.2L92.9,50.1l-47.6,51.6l52.8,57.4l15.8-17.2 M129.9,124.7l15.8-17.2l-18.5-20.1"/>
</g>
</svg>
