<?xml version="1.0" encoding="utf-8"?>
<!-- Generator: Adobe Illustrator 19.2.1, SVG Export Plug-In . SVG Version: 6.00 Build 0)  -->
<svg version="1.1" id="Layer_1" xmlns="http://www.w3.org/2000/svg" xmlns:xlink="http://www.w3.org/1999/xlink" x="0px" y="0px"
	 viewBox="0 0 200 200" style="enable-background:new 0 0 200 200;" xml:space="preserve">
<style type="text/css">
	.st0{fill:#474432;}
</style>
<g>
	<path class="st0" d="M97,138.7c0-5.1,0.4-9.5,1.3-13.4c0.9-3.9,2.1-7.3,3.6-10.3c1.5-3,3.3-5.8,5.3-8.2c2-2.5,4.2-4.8,6.4-6.9
		c2.3-2.1,4.6-4.4,6.8-6.7c2.3-2.3,4.3-4.8,6.1-7.3c1.8-2.5,3.2-5.2,4.3-8.2c1.1-2.9,1.6-6,1.6-9.3c0-4.7-0.9-8.7-2.6-12
		c-1.7-3.3-4-6.1-6.8-8.3c-2.8-2.2-6.1-3.8-9.8-4.8c-3.7-1-7.5-1.5-11.4-1.5c-5.7,0-10.7,0.9-15,2.8c-4.3,1.9-7.9,4.6-10.7,8
		c-2.8,3.4-5,7.4-6.4,12c-1.5,4.6-2.2,9.6-2.2,15.1h-7.2c0-6.7,0.9-12.8,2.7-18.4c1.8-5.6,4.5-10.3,8.1-14.3c3.5-4,7.9-7,13.2-9.2
		c5.2-2.1,11.3-3.2,18.1-3.2c5.1,0,9.8,0.7,14.3,2.1c4.5,1.4,8.4,3.5,11.9,6.3c3.4,2.8,6.1,6.3,8.1,10.6c2,4.3,2.9,9.3,2.9,15
		c0,4-0.5,7.6-1.4,10.7c-0.9,3.1-2.2,5.9-3.8,8.4c-1.6,2.5-3.4,4.8-5.4,6.9c-2,2.1-4.1,4.1-6.3,6.2c-2.2,1.9-4.3,3.9-6.5,6
		c-2.2,2.1-4.2,4.6-6,7.5c-1.8,2.9-3.2,6.4-4.4,10.3c-1.1,4-1.7,8.8-1.7,14.3H97z M96,153.5h9.7v12.1H96V153.5z"/>
</g>
</svg>
