<?xml version="1.0" encoding="utf-8"?>
<!-- Generator: Adobe Illustrator 19.2.1, SVG Export Plug-In . SVG Version: 6.00 Build 0)  -->
<svg version="1.1" id="Layer_1" xmlns="http://www.w3.org/2000/svg" xmlns:xlink="http://www.w3.org/1999/xlink" x="0px" y="0px"
	 viewBox="0 0 113.1 113.2" style="enable-background:new 0 0 113.1 113.2;" xml:space="preserve">
<style type="text/css">
	.st0{fill:#474431;}
</style>
<g>
	<path class="st0" d="M50.2,76.8c0-1.4-0.1-2.5-0.1-3.2c0-4.2,0.6-7.8,1.8-10.8c0.9-2.3,2.3-4.6,4.2-6.9c1.4-1.7,4-4.2,7.7-7.4
		c3.7-3.2,6.1-5.8,7.2-7.8c1.1-1.9,1.7-4,1.7-6.3c0-4.1-1.6-7.8-4.8-10.9c-3.2-3.1-7.2-4.7-11.9-4.7c-4.5,0-8.3,1.4-11.3,4.3
		c-3,2.8-5,7.3-6,13.3L27.6,35c1-8.1,3.9-14.3,8.8-18.6c4.9-4.3,11.3-6.4,19.3-6.4c8.5,0,15.2,2.3,20.3,6.9c5,4.6,7.6,10.2,7.6,16.7
		c0,3.8-0.9,7.3-2.7,10.5s-5.2,7.1-10.4,11.6c-3.5,3.1-5.7,5.3-6.8,6.8c-1.1,1.5-1.9,3.1-2.4,5c-0.5,1.9-0.8,5-0.9,9.2H50.2z
		 M49.6,98.1V86h12.1v12.1H49.6z"/>
</g>
</svg>
