<?xml version="1.0" encoding="utf-8"?>
<!-- Generator: Adobe Illustrator 19.2.1, SVG Export Plug-In . SVG Version: 6.00 Build 0)  -->
<svg version="1.1" id="Layer_1" xmlns="http://www.w3.org/2000/svg" xmlns:xlink="http://www.w3.org/1999/xlink" x="0px" y="0px"
	 viewBox="0 0 113.1 113.2" style="enable-background:new 0 0 113.1 113.2;" xml:space="preserve">
<style type="text/css">
	.st0{clip-path:url(#SVGID_2_);fill:none;stroke:#474431;stroke-width:5;stroke-miterlimit:10;}
</style>
<g>
	<defs>
		<rect id="SVGID_1_" x="9.5" y="8.9" width="94.1" height="95.5"/>
	</defs>
	<clipPath id="SVGID_2_">
		<use xlink:href="#SVGID_1_"  style="overflow:visible;"/>
	</clipPath>
	<path class="st0" d="M47.1,20.8l-0.6,4.3c-4.6,1.3-8.7,3.6-12.2,6.6l-13.8-3.8l-7.3,12.4l10.1,10.1c-0.4,2-0.6,4-0.6,6.1
		c0,2.5,0.3,4.9,0.8,7.3l-9,8.8L21.8,85l12.7-3.3c3.4,2.9,7.5,5.1,11.9,6.4l3.5,13.3l14.5,0.1L68.2,87c3.3-1.3,6.3-3.2,8.9-5.4
		L91,85.4l7.3-12.4L88.1,62.8c0.4-2,0.6-4,0.6-6.1c0-1.6-0.1-3.2-0.4-4.8l11.5-11.3l-7.2-12.5l-15,4c-2.7-2.4-5.8-4.4-9.3-5.8
		l-3.8-14.4l-17.5-0.1 M68.5,56.7c0,6.6-5.4,11.9-12,11.9c-6.6,0-12-5.4-12-12c0-6.6,5.4-11.9,12-11.9
		C63.2,44.7,68.5,50.1,68.5,56.7z"/>
</g>
</svg>
