<?xml version="1.0" encoding="utf-8"?>
<!-- Generator: Adobe Illustrator 19.2.1, SVG Export Plug-In . SVG Version: 6.00 Build 0)  -->
<svg version="1.1" id="Layer_1" xmlns="http://www.w3.org/2000/svg" xmlns:xlink="http://www.w3.org/1999/xlink" x="0px" y="0px"
	 viewBox="0 0 113.1 113.2" style="enable-background:new 0 0 113.1 113.2;" xml:space="preserve">
<style type="text/css">
	.st0{clip-path:url(#SVGID_2_);fill:none;stroke:#474431;stroke-width:5;stroke-miterlimit:10;}
</style>
<g>
	<defs>
		<rect id="SVGID_1_" x="12.2" y="7" width="93.9" height="97"/>
	</defs>
	<clipPath id="SVGID_2_">
		<use xlink:href="#SVGID_1_"  style="overflow:visible;"/>
	</clipPath>
	<path class="st0" d="M64.6,70.9L76.8,75l3,26.7H14.9l3-26.7L30,70.9 M88.6,70.8l11.8,3.2l2.9,21.5H88.6 M79.8,21.7
		c9.8,0,17.7,8.3,17.7,18.4c0,10.2-7.9,18.4-17.7,18.4 M70.9,34c0,13.6-10.6,24.6-23.6,24.6c-13,0-23.6-11-23.6-24.6
		c0-13.6,10.6-24.6,23.6-24.6C60.4,9.4,70.9,20.4,70.9,34z"/>
</g>
</svg>
