<?xml version="1.0" encoding="utf-8"?>
<!-- Generator: Adobe Illustrator 19.2.1, SVG Export Plug-In . SVG Version: 6.00 Build 0)  -->
<svg version="1.1" id="Layer_1" xmlns="http://www.w3.org/2000/svg" xmlns:xlink="http://www.w3.org/1999/xlink" x="0px" y="0px"
	 viewBox="0 0 113.1 113.2" style="enable-background:new 0 0 113.1 113.2;" xml:space="preserve">
<style type="text/css">
	.st0{clip-path:url(#SVGID_2_);fill:none;stroke:#474431;stroke-width:5;stroke-miterlimit:10;}
</style>
<g>
	<defs>
		<rect id="SVGID_1_" x="9.6" y="8.3" width="94" height="94.1"/>
	</defs>
	<clipPath id="SVGID_2_">
		<use xlink:href="#SVGID_1_"  style="overflow:visible;"/>
	</clipPath>
	<path class="st0" d="M46.6,56.9L15.8,79.3c-4.6,4.7-4.6,12.2,0,16.9c4.6,4.7,12.2,4.7,16.8,0L55,65.3 M62.4,59.5L50.6,47.8
		 M21.4,87.6h5.9 M103.6,37.8l-8.4-8.4l-4.2,4.2c-3.5,3.5-9.1,3.5-12.6,0c-3.5-3.5-3.5-9.1,0-12.6l4.2-4.2l-8.4-8.4 M97.4,39.7
		l-5.4,5.4c-7,7-18.3,7-25.2,0c-7-7-7-18.3,0-25.3l5.4-5.4 M79.2,59.7l18.1,18.1c4.6,4.7,4.7,12.2,0,16.9c-4.6,4.7-12.2,4.7-16.8,0
		L62.4,76.6 M88.9,86.3L72.6,70 M44.3,41.6L25.5,23.4 M14.9,21.3l2.1,2.1c2.3,2.3,6.1,2.3,8.4,0c2.3-2.3,2.3-6.1,0-8.4l-2.1-2.1
		L14.9,21.3z"/>
</g>
</svg>
