<?xml version="1.0" encoding="utf-8"?>
<!-- Generator: Adobe Illustrator 19.2.1, SVG Export Plug-In . SVG Version: 6.00 Build 0)  -->
<svg version="1.1" id="Layer_1" xmlns="http://www.w3.org/2000/svg" xmlns:xlink="http://www.w3.org/1999/xlink" x="0px" y="0px"
	 viewBox="0 0 200 200" style="enable-background:new 0 0 200 200;" xml:space="preserve">
<style type="text/css">
	.st0{clip-path:url(#SVGID_2_);fill:none;stroke:#474432;stroke-width:2.126;stroke-miterlimit:10;}
</style>
<g>
	<defs>
		<rect id="SVGID_1_" x="27" y="26.9" width="146" height="146.2"/>
	</defs>
	<clipPath id="SVGID_2_">
		<use xlink:href="#SVGID_1_"  style="overflow:visible;"/>
	</clipPath>
	<path class="st0" d="M83.9,102.8L35,138.3c-7.4,7.4-7.4,19.4,0,26.8c7.4,7.4,19.4,7.4,26.8,0l35.6-49 M109,106.8L90.3,88.2
		 M43.7,151.6h9.5 M171.3,75.5l-13.4-13.4l-6.7,6.7c-5.5,5.6-14.5,5.5-20.1,0c-5.5-5.5-5.5-14.5,0-20.1l6.7-6.7l-13.4-13.4
		 M164.6,75.5l-8.6,8.7c-11.1,11.1-29,11.1-40.1,0c-11.1-11.1-11.1-29.1,0-40.2l8.6-8.7 M135.8,107.3l28.7,28.8
		c7.4,7.4,7.4,19.4,0,26.8c-7.4,7.4-19.3,7.4-26.7,0L109,134.1 M151.2,149.5l-25.8-25.9 M80.2,78.4L50.3,49.5 M33.6,46.2l3.3,3.4
		c3.7,3.7,9.7,3.7,13.4,0c3.7-3.7,3.7-9.7,0-13.4l-3.3-3.3L33.6,46.2z"/>
</g>
</svg>
